<svg viewBox="405.47 19.976 82.582 80.936" height="1.2em" xmlns="http://www.w3.org/2000/svg">
            <defs>
                <linearGradient id="paint0_linear_301_112" x1="436.651" y1="18.3496" x2="428.967" y2="94.7975" gradientUnits="userSpaceOnUse">
                <stop stop-color="#01F1FF"></stop>
                <stop offset="1" stop-color="#0197FF"></stop>
                </linearGradient>
            </defs>
            <path fill-rule="evenodd" clip-rule="evenodd" d="M412.851 40.4402L426.421 53.7412L440.37 40.0704L447.155 46.721L433.206 60.3915L446.778 73.6928L439.804 80.5282L426.232 67.2268L412.285 80.898L405.5 74.2475L419.447 60.5765L405.877 47.2756L412.851 40.4402Z" fill="#030749" style=""></path>
            <path fill-rule="evenodd" clip-rule="evenodd" d="M439.694 80.6528L446.614 73.8707L446.611 73.8687L460.452 60.3059L446.875 47.0009L446.877 46.9997L440.089 40.3464L426.513 27.0398L433.432 20.2577L447.007 33.5645L460.848 20L467.636 26.6533L453.795 40.2176L467.371 53.5238L481.212 39.9599L488 46.6132L474.159 60.1769L487.737 73.4841L480.818 80.2663L467.24 66.959L453.401 80.5231L466.978 93.8306L460.059 100.613L446.481 87.3051L432.643 100.87L425.855 94.2171L439.694 80.6528Z" fill="url(#paint0_linear_301_112)" style=""></path>
        </svg>
